<svg width="24" height="24" viewBox="0 0 24 24" fill="none" xmlns="http://www.w3.org/2000/svg">
<g clip-path="url(#clip0_215_3813)">
<path d="M5.01739 11.9998C5.01739 11.2378 5.14739 10.5068 5.37739 9.82176L1.33939 6.80176C0.528086 8.41423 0.106778 10.1947 0.109387 11.9998C0.109387 13.8678 0.551387 15.6298 1.33739 17.1938L5.37339 14.1688C5.13805 13.4698 5.01782 12.7373 5.01739 11.9998Z" fill="#FBBC05"/>
<path d="M12.11 5.0666C13.8 5.0666 15.327 5.6526 16.527 6.6126L20.018 3.1996C17.891 1.3866 15.164 0.266602 12.11 0.266602C7.36797 0.266602 3.29197 2.9216 1.33997 6.8016L5.37997 9.8216C6.30997 7.0556 8.96197 5.0666 12.11 5.0666Z" fill="#EA4335"/>
<path d="M12.11 18.9327C8.96097 18.9327 6.30897 16.9437 5.37797 14.1777L1.33997 17.1977C3.29097 21.0777 7.36697 23.7327 12.11 23.7327C15.036 23.7327 17.83 22.7157 19.928 20.8087L16.094 17.9067C15.013 18.5737 13.651 18.9327 12.109 18.9327" fill="#34A853"/>
<path d="M23.5644 12.0002C23.5644 11.3072 23.4544 10.5602 23.2914 9.86719H12.1094V14.4002H18.5454C18.2244 15.9462 17.3484 17.1342 16.0954 17.9072L19.9284 20.8092C22.1314 18.8072 23.5644 15.8252 23.5644 12.0002Z" fill="#4285F4"/>
</g>
<defs>
<clipPath id="clip0_215_3813">
<rect width="24" height="24" fill="white"/>
</clipPath>
</defs>
</svg>
