<svg width="40" height="40" viewBox="0 0 40 40" fill="none" xmlns="http://www.w3.org/2000/svg">
<g clip-path="url(#clip0_215_3928)">
<path d="M20.366 35.83C20.126 34.59 20 33.31 20 32C20 22.93 26.038 15.27 34.312 12.82C34.886 12.762 35.476 12.712 36.082 12.67C37.002 14.77 37.358 20.444 37.15 29.69L30.938 35.83H20.366Z" fill="#20C997"/>
<path d="M13.856 29.28C14.8604 29.7006 15.7186 30.408 16.3233 31.3136C16.928 32.2193 17.2524 33.283 17.256 34.372C17.256 37.432 14.736 39.912 11.628 39.912C8.51998 39.912 5.99998 37.432 5.99998 34.372C5.99998 31.922 7.61598 29.842 9.85598 29.112V18.156C9.85598 17.3578 10.0132 16.5675 10.3186 15.83C10.6241 15.0926 11.0718 14.4226 11.6362 13.8582C12.2006 13.2938 12.8706 12.8461 13.608 12.5407C14.3454 12.2352 15.1358 12.078 15.934 12.078C16.7322 12.078 17.5225 12.2352 18.2599 12.5407C18.9973 12.8461 19.6674 13.2938 20.2318 13.8582C20.7962 14.4226 21.2439 15.0926 21.5493 15.83C21.8548 16.5675 22.012 17.3578 22.012 18.156V21.87C22.012 22.4328 22.2355 22.9725 22.6335 23.3705C23.0315 23.7684 23.5712 23.992 24.134 23.992C24.6968 23.992 25.2365 23.7684 25.6345 23.3705C26.0324 22.9725 26.256 22.4328 26.256 21.87V10.856C25.1711 10.4681 24.232 9.75554 23.5664 8.81513C22.9008 7.87471 22.541 6.75211 22.536 5.6C22.536 2.508 25.084 0 28.226 0C31.366 0 33.914 2.508 33.914 5.6C33.914 7.988 32.394 10.028 30.254 10.834V21.87C30.2687 22.6831 30.1212 23.491 29.8202 24.2465C29.5192 25.0021 29.0707 25.69 28.5008 26.2703C27.931 26.8505 27.2512 27.3114 26.5013 27.626C25.7514 27.9406 24.9462 28.1026 24.133 28.1026C23.3197 28.1026 22.5146 27.9406 21.7647 27.626C21.0147 27.3114 20.335 26.8505 19.7651 26.2703C19.1953 25.69 18.7468 25.0021 18.4458 24.2465C18.1447 23.491 17.9973 22.6831 18.012 21.87V18.156C18.012 17.6049 17.793 17.0763 17.4033 16.6866C17.0136 16.2969 16.4851 16.078 15.934 16.078C15.3829 16.078 14.8543 16.2969 14.4646 16.6866C14.0749 17.0763 13.856 17.6049 13.856 18.156V29.282V29.28ZM5.91998 25.94C5.91998 26.4704 5.70927 26.9791 5.3342 27.3542C4.95912 27.7293 4.45042 27.94 3.91998 27.94C3.38955 27.94 2.88084 27.7293 2.50577 27.3542C2.1307 26.9791 1.91998 26.4704 1.91998 25.94V12.044C1.91998 9.39183 2.97355 6.8483 4.84891 4.97293C6.72428 3.09757 9.26782 2.044 11.92 2.044H17.996C18.5264 2.044 19.0351 2.25471 19.4102 2.62979C19.7853 3.00486 19.996 3.51357 19.996 4.044C19.996 4.57443 19.7853 5.08314 19.4102 5.45821C19.0351 5.83329 18.5264 6.044 17.996 6.044H11.92C10.3287 6.044 8.80256 6.67614 7.67734 7.80136C6.55212 8.92658 5.91998 10.4527 5.91998 12.044V25.936V25.94ZM34.08 14.074C34.08 13.5436 34.2907 13.0349 34.6658 12.6598C35.0408 12.2847 35.5495 12.074 36.08 12.074C36.6104 12.074 37.1191 12.2847 37.4942 12.6598C37.8693 13.0349 38.08 13.5436 38.08 14.074V27.954C38.08 30.6062 37.0264 33.1497 35.151 35.0251C33.2757 36.9004 30.7321 37.954 28.08 37.954H22.038C21.5075 37.954 20.9988 37.7433 20.6238 37.3682C20.2487 36.9931 20.038 36.4844 20.038 35.954C20.038 35.4236 20.2487 34.9149 20.6238 34.5398C20.9988 34.1647 21.5075 33.954 22.038 33.954H28.078C29.6693 33.954 31.1954 33.3219 32.3206 32.1966C33.4458 31.0714 34.078 29.5453 34.078 27.954V14.074H34.08Z" fill="#2C6DD2"/>
</g>
<defs>
<clipPath id="clip0_215_3928">
<rect width="40" height="40" fill="white"/>
</clipPath>
</defs>
</svg>
